<svg xmlns="http://www.w3.org/2000/svg" version="1.1" xmlns:xlink="http://www.w3.org/1999/xlink" width="1000" height="1000"><g clip-path="url(#SvgjsClipPath1003)"><rect width="1000" height="1000" fill="#ffffff"></rect><g transform="matrix(3.5,0,0,3.5,150,150)"><svg xmlns="http://www.w3.org/2000/svg" version="1.1" xmlns:xlink="http://www.w3.org/1999/xlink" width="200" height="200"><svg xmlns="http://www.w3.org/2000/svg" version="1.1" xmlns:xlink="http://www.w3.org/1999/xlink" viewBox="0 0 200 200"><rect width="200" height="200" fill="url('#gradient')"></rect><defs><linearGradient id="gradient" gradientTransform="rotate(0 0.5 0.5)"><stop offset="0%" stop-color="#ffffff"></stop><stop offset="100%" stop-color="#ffffff"></stop></linearGradient><clipPath id="SvgjsClipPath1003"><rect width="1000" height="1000" x="0" y="0" rx="350" ry="350"></rect></clipPath></defs><g><g fill="#4a90e2" transform="matrix(4.355387523629489,0,0,4.355387523629489,5.332367675966935,130.96618074099823)" stroke="#4a90e2" stroke-width="0.2"><path d="M5.75 0L1.07 0L1.07-14.22L5.65-14.22Q7.54-14.22 9.04-13.36Q10.55-12.51 11.39-10.95Q12.24-9.39 12.25-7.46L12.25-7.46L12.25-6.81Q12.25-4.85 11.42-3.31Q10.60-1.76 9.10-0.88Q7.60-0.01 5.75 0L5.75 0ZM5.65-11.57L4.50-11.57L4.50-2.64L5.69-2.64Q7.17-2.64 7.96-3.69Q8.75-4.74 8.75-6.81L8.75-6.81L8.75-7.42Q8.75-9.48 7.96-10.53Q7.17-11.57 5.65-11.57L5.65-11.57ZM21.80 0L19.29-5.02L17.43-5.02L17.43 0L14.00 0L14.00-14.22L19.60-14.22Q22.13-14.22 23.55-13.10Q24.98-11.97 24.98-9.92L24.98-9.92Q24.98-8.44 24.38-7.46Q23.78-6.48 22.50-5.88L22.50-5.88L25.47-0.15L25.47 0L21.80 0ZM17.43-11.57L17.43-7.67L19.60-7.67Q20.58-7.67 21.07-8.18Q21.56-8.69 21.56-9.61Q21.56-10.53 21.06-11.05Q20.57-11.57 19.60-11.57L19.60-11.57L17.43-11.57ZM27.05-14.22L31.55-14.22L34.73-4.33L37.89-14.22L42.40-14.22L42.40 0L38.96 0L38.96-3.32L39.30-10.12L35.86 0L33.59 0L30.15-10.13L30.48-3.32L30.48 0L27.05 0L27.05-14.22Z"></path></g></g></svg></svg></g></g></svg>